<svg xmlns="http://www.w3.org/2000/svg" version="1.1" xmlns:xlink="http://www.w3.org/1999/xlink" width="512" height="512" x="0" y="0" viewBox="0 0 64 64" style="enable-background:new 0 0 512 512" xml:space="preserve" class=""><g><path d="M45.5 31H17.9c-.6 0-1-.4-1-1V16.3C16.9 10.1 22 5 28.2 5h7c6.2 0 11.3 5.1 11.3 11.3V30c0 .6-.4 1-1 1zm-26.6-2h25.6V16.3c0-5.1-4.2-9.3-9.3-9.3h-7c-5.1 0-9.3 4.2-9.3 9.3z" fill="#ffffff" opacity="1" data-original="#000000" class=""></path><path d="M20.4 39h-.1c-.6 0-1-.4-1-1v-8c0-.6.4-1 1-1h3c.6 0 1 .4 1 1v5.1c-.1 2.2-1.8 3.9-3.9 3.9zm.8-8v5.8c.6-.3 1-.9 1-1.7V31zM43.2 39h-.1c-2.1 0-3.9-1.7-3.9-3.9V30c0-.6.4-1 1-1h3c.6 0 1 .4 1 1v8c0 .6-.4 1-1 1zm-2-8v4.1c0 .7.4 1.3 1 1.7V31zM33.4 38h-3c-.6 0-1-.4-1-1v-7c0-.6.4-1 1-1h3c.6 0 1 .4 1 1v7c0 .6-.4 1-1 1zm-2-2h1v-5h-1z" fill="#ffffff" opacity="1" data-original="#000000" class=""></path><path d="M20.1 38h2v20h-2zM41.1 38h2v20h-2zM30.9 38h2v20h-2zM31.7 23c-3.3 0-6-2.7-6-6s2.7-6 6-6 6 2.7 6 6-2.7 6-6 6zm0-10c-2.2 0-4 1.8-4 4s1.8 4 4 4 4-1.8 4-4-1.8-4-4-4z" fill="#ffffff" opacity="1" data-original="#000000" class=""></path></g></svg>