<svg xmlns="http://www.w3.org/2000/svg" version="1.1" xmlns:xlink="http://www.w3.org/1999/xlink" width="512" height="512" x="0" y="0" viewBox="0 0 64 64" style="enable-background:new 0 0 512 512" xml:space="preserve"><g><g data-name="Capacitor-semiconductor-electronics"><path d="M32 2c-9.939 0-20 2.061-20 6v38c0 2.415 3.784 4.122 9 5.083V59a3 3 0 0 0 6 0v-7.177a70.484 70.484 0 0 0 10 0V59a3 3 0 0 0 6 0v-7.917c5.216-.961 9-2.668 9-5.083V8c0-3.939-10.061-6-20-6zm0 2c11.646 0 18 2.643 18 4s-6.354 4-18 4-18-2.643-18-4 6.354-4 18-4zm-10 9.257v35.975a33.265 33.265 0 0 1-4-.911V12.4a36.533 36.533 0 0 0 4 .857zM14 46V10.772a12.031 12.031 0 0 0 2 .971V47.6c-1.313-.579-2-1.158-2-1.6zm11 13a1 1 0 0 1-2 0v-7.593c.652.092 1.32.171 2 .242zm16 0a1 1 0 0 1-2 0v-7.351c.68-.071 1.348-.15 2-.242zm-9-9a64.066 64.066 0 0 1-8-.472V13.537A67.441 67.441 0 0 0 32 14c7.259 0 14.578-1.1 18-3.228V46c0 1.357-6.354 4-18 4z" fill="#ffffff" opacity="1" data-original="#000000"></path><path d="M19 14h2v4h-2zM19 22h2v4h-2zM19 36h2v4h-2zM19 44h2v4h-2zM31 11h2V9h6V7h-6V5h-2v2h-6v2h6zM19 29h2v4h-2z" fill="#ffffff" opacity="1" data-original="#000000"></path></g></g></svg>