<svg id="Capa_1" enable-background="new 0 0 512 512" height="512" viewBox="0 0 512 512" width="512" xmlns="http://www.w3.org/2000/svg"><g><path d="m407 196h-302c-57.897 0-105 47.103-105 105v165h120v-45c0-8.271 6.729-15 15-15s15 6.729 15 15v45h212v-45c0-8.271 6.729-15 15-15s15 6.729 15 15v45h120v-165c0-57.897-47.103-105-105-105zm-272 180c-24.813 0-45 20.187-45 45v15h-60v-135c0-41.355 33.645-75 75-75h136v60h-16c-24.813 0-45 20.187-45 45s20.187 45 45 45h16v60h-61v-15c0-24.813-20.187-45-45-45zm347 60h-60v-15c0-24.813-20.187-45-45-45s-45 20.187-45 45v15h-61v-90h-46c-8.271 0-15-6.729-15-15s6.729-15 15-15h46v-90h136c41.355 0 75 33.645 75 75z"/><path d="m210 121c0-41.355-33.645-75-75-75s-75 33.645-75 75 33.645 75 75 75 75-33.645 75-75zm-75 45c-24.813 0-45-20.187-45-45s20.187-45 45-45 45 20.187 45 45-20.187 45-45 45z"/><path d="m452 121c0-41.355-33.645-75-75-75s-75 33.645-75 75 33.645 75 75 75 75-33.645 75-75zm-75 45c-24.813 0-45-20.187-45-45s20.187-45 45-45 45 20.187 45 45-20.187 45-45 45z"/></g></svg>