<svg xmlns="http://www.w3.org/2000/svg" version="1.1" xmlns:xlink="http://www.w3.org/1999/xlink" width="512" height="512" x="0" y="0" viewBox="0 0 66 66" style="enable-background:new 0 0 512 512" xml:space="preserve" class=""><g><path d="m43 31.5-3.7-1.3c-.3-1-.7-2-1.3-3l1.7-3.5c.2-.4.1-.9-.2-1.1l-4.3-4.3c-.3-.3-.8-.4-1.1-.2l-3.5 1.7c-1-.5-2-.9-3-1.3l-1.3-3.7c-.1-.4-.5-.7-.9-.7h-6.1c-.4 0-.8.3-1 .7L17 18.5c-1 .3-2 .7-3 1.3L10.6 18c-.4-.2-.8-.1-1.2.2l-4.3 4.3c-.3.3-.4.8-.2 1.1l1.7 3.5c-.5 1-.9 2-1.2 3l-3.7 1.3c-.4.2-.7.6-.7 1v6.1c0 .4.3.8.7 1l3.7 1.3c.3 1 .7 2 1.3 3L5 47.3c-.2.4-.1.9.2 1.2l4.3 4.3c.3.3.8.4 1.2.2l3.5-1.7c1 .5 2 .9 3 1.3l1.3 3.7c.1.4.5.7.9.7h6.1c.4 0 .8-.3.9-.7l1.3-3.7c1-.3 2-.7 3-1.3l3.5 1.7c.4.2.8.1 1.1-.2l4.3-4.3c.3-.3.4-.8.2-1.2L38 43.7c.5-1 .9-2 1.3-3l3.7-1.3c.4-.1.7-.5.7-1v-6.1c0-.3-.3-.7-.7-.8zM22.3 44c-4.7 0-8.5-3.8-8.5-8.5s3.8-8.5 8.5-8.5 8.5 3.8 8.5 8.5c0 4.6-3.8 8.5-8.5 8.5zM64.3 11.6l-2-.7c-.2-.5-.4-1-.6-1.4l.9-1.9c.2-.4.1-.8-.2-1.2L60 3.9c-.3-.3-.8-.4-1.1-.2l-1.9.9c-.5-.2-.9-.4-1.4-.6l-.7-2c-.1-.4-.5-.7-.9-.7h-3.6c-.4 0-.8.3-1 .7l-.7 2c-.5.2-1 .4-1.4.6l-1.9-.9c-.4-.2-.9-.1-1.2.2l-2.5 2.5c-.3.3-.4.8-.2 1.2l.9 1.9c-.2.5-.4.9-.6 1.4l-2 .7c-.4.1-.7.5-.7.9v3.6c0 .4.3.8.7.9l2 .7.6 1.5-.9 1.8c-.2.4-.1.9.2 1.2l2.5 2.5c.3.3.8.4 1.2.2l1.9-.9c.5.2 1 .4 1.4.6l.7 2c.1.4.5.7 1 .7H54c.4 0 .8-.3.9-.7l.7-2c.5-.2 1-.4 1.4-.6l1.9.9c.4.2.8.1 1.2-.2l2.5-2.5c.3-.3.4-.8.2-1.2l-.9-1.9.6-1.5 2-.7c.4-.1.7-.5.7-.9v-3.6c-.2-.3-.5-.7-.9-.8zm-12.2 7.7c-2.8 0-5-2.2-5-5 0-2.7 2.2-5 5-5 2.7 0 5 2.2 5 5s-2.3 5-5 5z" fill="#a87e3f" opacity="1" data-original="#000000" class=""></path><path d="m64.3 44.2-2.8-1c-.2-.8-.5-1.5-.9-2.2l1.3-2.7c.2-.4.1-.8-.2-1.1l-3.4-3.4c-.3-.3-.8-.4-1.2-.2L54.5 35c-.7-.4-1.5-.7-2.2-.9l-.9-2.8c-.1-.4-.5-.7-1-.7h-4.8c-.2 0-.3 0-.5.1.3.5.5 1.1.5 1.7v6.1c0 1.3-.8 2.4-2 2.8l-2.8 1c-.2.5-.4 1-.6 1.4l1.3 2.6c.6 1.2.4 2.5-.6 3.5l-4.3 4.3c-.5.5-1.1.8-1.7.9l-.9 1.8c-.2.4-.1.8.2 1.1l3.4 3.4c.3.3.8.4 1.2.2l2.7-1.3c.7.4 1.5.7 2.2.9l1 2.8c.1.4.5.7 1 .7h4.8c.4 0 .8-.3 1-.7l.9-2.8c.8-.3 1.5-.6 2.2-.9l2.7 1.3c.4.2.8.1 1.2-.2l3.4-3.4c.3-.3.4-.8.2-1.1l-1.3-2.7c.4-.7.7-1.5.9-2.2l2.8-1c.4-.1.7-.5.7-1v-4.8c-.2-.4-.5-.7-.9-.9zM49 54.3a6.7 6.7 0 1 1 0-13.4 6.7 6.7 0 0 1 0 13.4z" fill="#a87e3f" opacity="1" data-original="#000000" class=""></path></g></svg>