<svg xmlns="http://www.w3.org/2000/svg" version="1.1" xmlns:xlink="http://www.w3.org/1999/xlink" width="512" height="512" x="0" y="0" viewBox="0 0 682.667 682.667" style="enable-background:new 0 0 512 512" xml:space="preserve"><g><defs><clipPath id="a" clipPathUnits="userSpaceOnUse"><path d="M0 512h512V0H0Z" fill="#ffffff" opacity="1" data-original="#000000"></path></clipPath></defs><g clip-path="url(#a)" transform="matrix(1.33333 0 0 -1.33333 0 682.667)"><path d="M0 0c-.247 13.013-.483 25.307-.483 37.199 0 9.318-7.552 16.871-16.871 16.871-72.151 0-127.084 20.737-172.874 65.258-6.55 6.371-16.974 6.368-23.522 0-45.785-44.521-100.709-65.258-172.855-65.258-9.318 0-16.872-7.553-16.872-16.871 0-11.895-.233-24.193-.483-37.209-2.312-121.103-5.479-286.961 196.445-356.953a16.86 16.86 0 0 1 11.05 0C5.475-286.968 2.313-121.106 0 0Z" style="stroke-width:30;stroke-linecap:butt;stroke-linejoin:miter;stroke-miterlimit:10;stroke-dasharray:none;stroke-opacity:1" transform="translate(457.98 372.894)" fill="none" stroke="#ffffff" stroke-width="30" stroke-linecap="butt" stroke-linejoin="miter" stroke-miterlimit="10" stroke-dasharray="none" stroke-opacity="" data-original="#000000" opacity="1"></path><path d="M0 0v63.271h-59.866V0h-63.275v-59.866h63.275v-63.27H0v63.27h63.266V0z" style="stroke-width:30;stroke-linecap:butt;stroke-linejoin:round;stroke-miterlimit:10;stroke-dasharray:none;stroke-opacity:1" transform="translate(285.938 290.946)" fill="none" stroke="#ffffff" stroke-width="30" stroke-linecap="butt" stroke-linejoin="round" stroke-miterlimit="10" stroke-dasharray="none" stroke-opacity="" data-original="#000000" opacity="1"></path></g></g></svg>