<svg xmlns="http://www.w3.org/2000/svg" version="1.1" xmlns:xlink="http://www.w3.org/1999/xlink" width="512" height="512" x="0" y="0" viewBox="0 0 30 30" style="enable-background:new 0 0 512 512" xml:space="preserve" class=""><g><path d="M27.667 14.163H7.2v-3.108a1.27 1.27 0 1 1 2.539 0 .75.75 0 0 0 1.5 0 2.77 2.77 0 1 0-5.539 0v.594h-.92a.75.75 0 0 0 0 1.5h.92v1.014H2.333a1.752 1.752 0 0 0-1.75 1.75v1.712a1.744 1.744 0 0 0 .907 1.524V27a2.753 2.753 0 0 0 2.75 2.75h21.511A2.752 2.752 0 0 0 28.5 27v-3.144c0-.015.009-.028.009-.044s-.008-.028-.009-.043v-4.615a1.745 1.745 0 0 0 .916-1.529v-1.712a1.752 1.752 0 0 0-1.749-1.75Zm-25.584 1.75a.25.25 0 0 1 .25-.25h25.334a.25.25 0 0 1 .25.25v1.712a.25.25 0 0 1-.25.25H2.333a.25.25 0 0 1-.25-.25ZM27 23.062H15.75v-3.687h4.88v.362a.75.75 0 0 0 1.5 0v-.362H27ZM2.99 27v-7.625h11.26v8.875H4.24A1.252 1.252 0 0 1 2.99 27Zm22.761 1.25h-10v-3.688h4.88v.363a.75.75 0 0 0 1.5 0v-.363H27V27a1.252 1.252 0 0 1-1.249 1.25Z" fill="#333333" opacity="1" data-original="#000000"></path><path d="M12.3 22.214a.75.75 0 0 0-.75.75v1.7a.75.75 0 0 0 1.5 0v-1.7a.75.75 0 0 0-.75-.75ZM22.866.25h-2.972A1.752 1.752 0 0 0 18.144 2v.806a.254.254 0 0 1-.1.2l-2.713 1.973a2.373 2.373 0 0 0 1.4 4.292h9.3a2.374 2.374 0 0 0 1.4-4.292l-2.71-1.971a.249.249 0 0 1-.1-.2V2A1.752 1.752 0 0 0 22.866.25Zm3.68 5.941a.874.874 0 0 1-.515 1.58h-9.3a.873.873 0 0 1-.514-1.58l2.709-1.97a1.758 1.758 0 0 0 .721-1.415V2a.25.25 0 0 1 .25-.25h2.972a.25.25 0 0 1 .25.25v.806a1.756 1.756 0 0 0 .72 1.415Z" fill="#333333" opacity="1" data-original="#000000"></path></g></svg>