<svg xmlns="http://www.w3.org/2000/svg" version="1.1" xmlns:xlink="http://www.w3.org/1999/xlink" width="512" height="512" x="0" y="0" viewBox="0 0 511 511.999" style="enable-background:new 0 0 512 512" xml:space="preserve" class=""><g><path d="M294.898 384c-7.07 0-12.8 5.73-12.8 12.8V448c-.024 21.2-17.203 38.379-38.399 38.402H64.5C43.3 486.38 26.121 469.2 26.098 448V64C26.12 42.805 43.3 25.625 64.5 25.602h179.2c21.198.023 38.378 17.203 38.398 38.398v51.2c0 7.07 5.734 12.8 12.8 12.8 7.07 0 12.801-5.73 12.801-12.8V64c-.035-35.332-28.668-63.965-64-64H64.5C29.172.043.543 28.672.5 64v384c.043 35.328 28.672 63.957 64 64h179.2c35.331-.04 63.964-28.672 64-64v-51.203c0-7.067-5.731-12.797-12.802-12.797zm0 0" fill="#b78d52" opacity="1" data-original="#000000" class=""></path><path d="m457.55 246.95-76.8-76.802c-5.086-4.91-13.188-4.77-18.098.317-4.793 4.96-4.793 12.824 0 17.785l54.946 54.95H141.297c-7.067 0-12.797 5.73-12.797 12.8s5.73 12.8 12.797 12.8h276.3l-54.949 54.95c-5.086 4.91-5.226 13.016-.312 18.098 4.91 5.086 13.012 5.226 18.098.316.105-.105.21-.207.316-.316l76.797-76.801c5-4.992 5.004-13.09.008-18.09 0-.004-.004-.004-.004-.008zm0 0" fill="#b78d52" opacity="1" data-original="#000000" class=""></path></g></svg>