<svg xmlns="http://www.w3.org/2000/svg" version="1.1" xmlns:xlink="http://www.w3.org/1999/xlink" width="512" height="512" x="0" y="0" viewBox="0 0 512.002 512" style="enable-background:new 0 0 512 512" xml:space="preserve" class=""><g><path d="M15 512h272.012c8.285 0 15-6.715 15-15v-32c0-19.555-12.543-36.23-30-42.422v-19.52c0-23.745-19.32-43.062-43.067-43.062H73.066C49.32 359.996 30 379.313 30 403.06v19.52C12.543 428.768 0 445.444 0 465v32c0 8.285 6.715 15 15 15Zm58.066-122.004h155.88c7.202 0 13.066 5.86 13.066 13.063V420H60.004v-16.941c0-7.204 5.86-13.063 13.062-13.063ZM30 465c0-8.273 6.73-15 15-15h212.008c8.273 0 15.004 6.727 15.004 15v17H30ZM172.79 312.281c14.878 19.762 43.136 23.856 63.019 8.887 13.242-9.969 19.402-25.89 17.597-41.273a176.929 176.929 0 0 0 37.215-10.625l140.445 186.543c14.883 19.773 43.145 23.847 63.02 8.886 19.82-14.926 23.809-43.195 8.883-63.02L362.527 215.138a177.219 177.219 0 0 0 20.493-32.817c14.457 6.063 31.437 4.348 44.53-5.511 19.825-14.926 23.813-43.196 8.887-63.02l-72.18-95.871c-14.925-19.824-43.195-23.809-63.019-8.883-13.242 9.969-19.402 25.887-17.597 41.27-56.524 9.629-104.715 45.906-129.606 97.558-14.43-6.05-31.336-4.41-44.539 5.528-19.871 14.96-23.848 43.148-8.887 63.02Zm168.89-74.953 20.03 26.606-23.968 18.043-20.031-26.602a176.665 176.665 0 0 0 23.969-18.047ZM476.04 440.73c-6.61 4.977-16.032 3.649-21.009-2.96l-99.246-131.825 23.969-18.043L479 419.722c4.977 6.61 3.645 16.032-2.96 21.008ZM319.284 33.004c6.63-4.992 16.047-3.625 21.008 2.96l72.176 95.872c4.976 6.605 3.648 16.031-2.961 21.004-6.621 4.988-16.016 3.664-21.004-2.961l-72.18-95.871c-4.976-6.61-3.648-16.031 2.961-21.004Zm-21.95 45.66c6.497 8.633 55.614 73.875 62.22 82.645a146.933 146.933 0 0 1-119.84 90.226l-62.219-82.648c20.496-49.825 66.29-84.297 119.84-90.223ZM127.544 177.36c6.605-4.976 16.008-3.675 21.004 2.961l72.18 95.871v.004c4.972 6.606 3.644 16.028-2.961 21.004-6.61 4.973-16.032 3.645-21.008-2.96l-72.18-95.872c-4.984-6.625-3.66-16.02 2.965-21.008Zm0 0" style="stroke:none;fill-rule:nonzero;fill-opacity:1;" fill="#333333" data-original="#000000" opacity="1" class=""></path></g></svg>