<svg xmlns="http://www.w3.org/2000/svg" version="1.1" xmlns:xlink="http://www.w3.org/1999/xlink" width="512" height="512" x="0" y="0" viewBox="0 0 32 32" style="enable-background:new 0 0 512 512" xml:space="preserve"><g><path d="M30 5h-3V2a1 1 0 0 0-1.372-.929L15.807 5H2a1 1 0 0 0-1 1v24a1 1 0 0 0 1 1h28a1 1 0 0 0 1-1V6a1 1 0 0 0-1-1Zm-5 20.323-8 3.2V6.677l8-3.2ZM3 7h12v22H3Zm26 22h-7.807l5.179-2.071A1 1 0 0 0 27 26V7h2Z" fill="#333333" opacity="1" data-original="#000000"></path><path d="M12 9H6a1 1 0 0 0 0 2h6a1 1 0 0 0 0-2ZM12 13H6a1 1 0 0 0 0 2h6a1 1 0 0 0 0-2ZM12 17H6a1 1 0 0 0 0 2h6a1 1 0 0 0 0-2ZM12 21H6a1 1 0 0 0 0 2h6a1 1 0 0 0 0-2ZM12 25H6a1 1 0 0 0 0 2h6a1 1 0 0 0 0-2Z" fill="#333333" opacity="1" data-original="#000000"></path></g></svg>