<svg xmlns="http://www.w3.org/2000/svg" version="1.1" xmlns:xlink="http://www.w3.org/1999/xlink" width="512" height="512" x="0" y="0" viewBox="0 0 128 128" style="enable-background:new 0 0 512 512" xml:space="preserve"><g><path d="m87.7 33.1-.8-10.8C86 10.4 76 1 64 1s-22.1 9.4-22.9 21.3l-.8 10.8H28.8c-4.7 0-8.6 3.7-9 8.4l-5.4 75.9c-.2 2.5.7 5 2.4 6.8s4.1 2.9 6.6 2.9h81.3c2.5 0 4.9-1 6.6-2.9 1.7-1.8 2.6-4.3 2.4-6.8l-5.4-75.2c-.4-5.1-4.6-9-9.7-9H87.7zM47.1 22.7C47.7 13.9 55.1 7 64 7s16.3 6.9 16.9 15.7l.7 10.4H46.3zm55.2 19.9 5.4 75.2c.1.8-.2 1.6-.8 2.3-.6.6-1.4 1-2.2 1H23.4c-.8 0-1.6-.3-2.2-1s-.9-1.4-.8-2.3l5.4-75.9c.1-1.6 1.4-2.8 3-2.8h11.1l-.6 8c-.1 1.7 1.1 3.1 2.8 3.2h.2c1.6 0 2.9-1.2 3-2.8l.6-8.4h36.2l.6 8.4c.1 1.7 1.5 2.9 3.2 2.8s2.9-1.5 2.8-3.2l-.6-8h10.5c1.9 0 3.5 1.5 3.7 3.5z" fill="#b78d52" opacity="1" data-original="#000000"></path></g></svg>