<svg height="496pt" viewBox="0 0 496 496" width="496pt" xmlns="http://www.w3.org/2000/svg"><path d="m471.511719 406.246094c.328125-2.140625.488281-4.199219.488281-6.246094 0-26.472656-21.527344-48-48-48-6.199219 0-12.105469 1.214844-17.542969 3.367188-5.722656-7.703126-13.546875-13.382813-22.457031-16.527344v-88.742188c11.742188 13.367188 28.855469 21.902344 48 21.902344 35.289062 0 64-28.710938 64-64 0-21.152344-10.367188-40.671875-27.496094-52.550781 2.304688-6.210938 3.496094-12.816407 3.496094-19.449219 0-23.054688-14.359375-43.617188-35.230469-52 2.140625-6.449219 3.230469-13.144531 3.230469-20 0-35.289062-28.710938-64-64-64s-64 28.710938-64 64c0 6.855469 1.089844 13.550781 3.230469 20-20.871094 8.382812-35.230469 28.945312-35.230469 52 0 6.632812 1.191406 13.238281 3.496094 19.449219-17.128906 11.878906-27.496094 31.398437-27.496094 52.550781 0 35.289062 28.710938 64 64 64 19.144531 0 36.257812-8.535156 48-21.902344v85.902344c-15.742188 0-29.695312 7.648438-38.449219 19.390625-5.566406-2.183594-11.503906-3.390625-17.550781-3.390625-16.3125 0-31.246094 8.464844-40 21.726562v-37.726562h32v-48h-32v-19.3125l-32-32-32 32v19.3125h-16v-19.3125l-32-32-16 16v-68.6875h24c30.871094 0 56-25.128906 56-56v-8h-40c-15.664062 0-29.824219 6.480469-40 16.886719v-32.886719h24c30.871094 0 56-25.128906 56-56v-8h-40c-5.640625 0-11.167969.878906-16.519531 2.542969l-31.480469-39.351563-31.480469 39.351563c-5.351562-1.664063-10.878906-2.542969-16.519531-2.542969h-40v8c0 30.871094 25.128906 56 56 56h24v72.886719c-10.175781-10.40625-24.335938-16.886719-40-16.886719h-40v8c0 30.871094 25.128906 56 56 56h24v64h-16v-19.3125l-32-32-32 32v19.3125h-32v48h32v48h-32v48h32v48h-16v16h416c26.472656 0 48-21.527344 48-48 0-17.601562-9.414062-33.34375-24.488281-41.753906zm-151.511719-150.246094c-26.472656 0-48-21.527344-48-48 0-17.742188 9.742188-33.976562 25.425781-42.351562l7.0625-3.769532-3.777343-7.0625c-3.125-5.839844-4.710938-12.175781-4.710938-18.816406 0-18.761719 13.304688-35.207031 31.640625-39.113281l10.136719-2.160157-4.648438-9.253906c-3.402344-6.777344-5.128906-13.992187-5.128906-21.472656 0-26.472656 21.527344-48 48-48s48 21.527344 48 48c0 7.480469-1.726562 14.695312-5.128906 21.480469l-4.648438 9.253906 10.136719 2.160156c18.335937 3.898438 31.640625 20.34375 31.640625 39.105469 0 6.640625-1.585938 12.976562-4.710938 18.824219l-3.777343 7.0625 7.0625 3.769531c15.683593 8.367188 25.425781 24.601562 25.425781 42.34375 0 26.472656-21.527344 48-48 48-20.128906 0-37.367188-12.457031-44.488281-30.054688l37.0625-24.707031 27.839843 13.921875 7.160157-14.3125-36.160157-18.078125-39.367187 26.246094c-.007813-.34375-.046875-.671875-.046875-1.015625v-44.152344l9.183594-7.351562 17.160156 17.160156 11.3125-11.3125-15.894531-15.894531 15.238281-12.191407-10-12.496093-27 21.589843v-35.070312l20.441406-13.625-8.875-13.3125-11.566406 7.710938v-21.335938l-27.558594-18.375-8.875 13.3125 20.433594 13.625v99.070312l-26.03125-20.824218-15.3125-22.96875-13.3125 8.875 12.359375 18.542968-19.359375 19.359376 11.3125 11.3125 19.160156-19.160157 31.183594 25.328125v12.183594c0 26.472656-21.527344 48-48 48zm-136-120h23.191406c-3.71875 18.230469-19.871094 32-39.191406 32h-23.191406c3.710937-18.230469 19.871094-32 39.191406-32zm23.191406-80c-3.640625 17.863281-19.238281 31.351562-38.039062 31.894531 4.289062-6.101562 6.847656-13.496093 6.847656-21.503906 0-3.117187-.519531-6.191406-1.28125-9.191406 3.035156-.734375 6.128906-1.199219 9.28125-1.199219zm-90.449218-3.113281 19.257812-24.078125 19.265625 24.085937c3.054687 3.808594 4.734375 8.609375 4.734375 13.496094 0 11.914063-9.695312 21.609375-21.609375 21.609375h-4.78125c-11.914063 0-21.609375-9.695312-21.609375-21.609375 0-4.886719 1.679688-9.6875 4.742188-13.503906zm-51.933594 3.113281h23.191406c3.152344 0 6.246094.464844 9.289062 1.199219-.769531 3-1.289062 6.074219-1.289062 9.191406 0 8.007813 2.558594 15.402344 6.839844 21.503906-18.792969-.542969-34.390625-14.03125-38.03125-31.894531zm39.191406 152c-19.320312 0-35.480469-13.769531-39.191406-32h23.191406c19.320312 0 35.480469 13.769531 39.191406 32zm184 96v16h-16v-16zm-48-44.6875 16 16v93.40625c-2.609375-.4375-5.273438-.71875-8-.71875-8.664062 0-16.871094 2.367188-24 6.496094v-99.183594zm-32 130.367188c-2.167969 3.273437-3.910156 6.824218-5.230469 10.625-3.738281.40625-7.335937 1.28125-10.769531 2.503906v-66.808594h16zm0-85.679688v16h-16v-16zm-32-28.6875v137.007812c-9.792969 8.792969-16 21.503907-16 35.679688 0 12.304688 4.6875 23.496094 12.320312 32h-28.320312v-204.6875l16-16zm-48 108.6875h-16v-48h16zm0 16v16h-16v-16zm0 32v48h-16v-48zm0-128v16h-16v-16zm-96 16v-16h16v16zm0 96v-16h16v16zm32-140.6875 16-16 16 16v204.6875h-32zm384 204.6875h-240c-17.648438 0-32-14.351562-32-32s14.351562-32 32-32 32 14.351562 32 32h16c0-22.457031-15.519531-41.3125-36.390625-46.519531 5.367187-10.449219 16.191406-17.480469 28.390625-17.480469 17.648438 0 32 14.351562 32 32h16c0-12.105469-4.535156-23.136719-11.953125-31.59375 5.585937-9.972656 16.289063-16.40625 27.953125-16.40625 3.488281 0 6.910156.632812 10.167969 1.71875-1.40625 4.511719-2.167969 9.3125-2.167969 14.28125h16c0-17.648438 14.351562-32 32-32 9.71875 0 18.664062 4.398438 24.664062 11.71875-10.183593 8.808594-16.664062 21.792969-16.664062 36.28125h16c0-17.648438 14.351562-32 32-32s32 14.351562 32 32c0 2.558594-.433594 5.304688-1.351562 8.617188l-1.953126 6.992187 6.777344 2.613281c12.472656 4.816406 20.527344 16.503906 20.527344 29.777344 0 17.648438-14.351562 32-32 32zm0 0"/><path d="m0 480h16v16h-16zm0 0"/><path d="m440 288h-40v8c0 22.054688 17.945312 40 40 40h40v-8c0-22.054688-17.945312-40-40-40zm0 32c-10.433594 0-19.328125-6.6875-22.632812-16h22.632812c10.433594 0 19.328125 6.6875 22.632812 16zm0 0"/></svg>