<svg xmlns="http://www.w3.org/2000/svg" version="1.1" xmlns:xlink="http://www.w3.org/1999/xlink" width="512" height="512" x="0" y="0" viewBox="0 0 48 48" style="enable-background:new 0 0 512 512" xml:space="preserve" fill-rule="evenodd" class=""><g><path d="M17.845 35.577c-2.029 0-3.676 1.647-3.676 3.676s1.647 3.676 3.676 3.676 3.676-1.647 3.676-3.676-1.647-3.676-3.676-3.676zm13.38 0c-2.029 0-3.676 1.647-3.676 3.676s1.647 3.676 3.676 3.676 3.676-1.647 3.676-3.676-1.647-3.676-3.676-3.676zm-13.38 2a1.677 1.677 0 1 1-.002 3.354 1.677 1.677 0 0 1 .002-3.354zm13.38 0a1.677 1.677 0 1 1-.002 3.354 1.677 1.677 0 0 1 .002-3.354zM9.432 7.07s1.61 16.447 2.225 22.284a5 5 0 0 0 4.972 4.477h17.017a5.001 5.001 0 0 0 4.768-3.495l5.54-17.542A1 1 0 0 0 43 11.493H11.807l-.458-5.506a1.001 1.001 0 0 0-.997-.917H5a1 1 0 0 0 0 2zm32.204 6.423-5.129 16.241a3 3 0 0 1-2.861 2.097H16.629a3 3 0 0 1-2.983-2.686l-1.648-15.652zm-15.692 2.526a6.645 6.645 0 0 0-6.643 6.643 6.645 6.645 0 0 0 6.643 6.642 6.646 6.646 0 0 0 6.643-6.642 6.646 6.646 0 0 0-6.643-6.643zm0 2a4.645 4.645 0 0 1 4.643 4.643 4.645 4.645 0 0 1-4.643 4.642 4.644 4.644 0 0 1-4.643-4.642 4.645 4.645 0 0 1 4.643-4.643zM25 20.404l-.056 2.232c-.009.356.172.69.475.877l2.056 1.267a1 1 0 1 0 1.05-1.702l-1.567-.966.042-1.658a1 1 0 0 0-2-.05z" fill="#b78d52" opacity="1" data-original="#000000" class=""></path></g></svg>