<svg id="Layer_1" height="512" viewBox="0 0 64 64" width="512" xmlns="http://www.w3.org/2000/svg" data-name="Layer 1"><path d="m59 33.05-2-.05c-.88 18.23-17 22.14-21.9 22.91a14.25 14.25 0 0 0 -3.1.84 14.25 14.25 0 0 0 -3.1-.84c-4.9-.82-21.02-4.73-21.9-22.91l-2 .1c1 19.69 18.3 23.9 23.6 24.73l1 .2a9.29 9.29 0 0 0 -2.39 2.42l1.66 1.1a7.66 7.66 0 0 1 2-2 10.8 10.8 0 0 1 1.13-.66 10.8 10.8 0 0 1 1.15.67 7.66 7.66 0 0 1 2 2l1.66-1.1a9.29 9.29 0 0 0 -2.37-2.46l1-.2c5.26-.8 22.56-5.01 23.56-24.75z" fill="#ffd073"/><rect fill="#2970cc" height="23" rx="1" width="24" x="20" y="19"/><path d="m28 19v9l4-3 4 3v-9z" fill="#cce2ff"/><path d="m32 2 1.95 3.95 4.36.63-3.16 3.08.75 4.34-3.9-2.05-3.9 2.05.75-4.34-3.16-3.08 4.36-.63z" fill="#e65c62"/><g fill="#fb3"><path d="m60.69 30.12c-.11 2.2-2.69 3.88-2.69 3.88s-2.41-1.91-2.3-4.12 2.69-3.88 2.69-3.88 2.41 1.91 2.3 4.12z"/><path d="m59.81 45.12c-2 1-4.68-.54-4.68-.54s.55-3 2.54-4 4.69.54 4.69.54-.55 3.06-2.55 4z"/><path d="m51.16 42c.94 2 4 2.55 4 2.55s1.49-2.69.55-4.69-4-2.54-4-2.54-1.5 2.68-.55 4.68z"/><path d="m48 57.34c-2.2-.2-3.76-2.85-3.76-2.85s2-2.33 4.21-2.13 3.76 2.85 3.76 2.85-2.03 2.33-4.21 2.13z"/><path d="m42.09 50.28c-.2 2.2 2.13 4.21 2.13 4.21s2.65-1.56 2.85-3.76-2.13-4.21-2.13-4.21-2.65 1.56-2.85 3.76z"/><path d="m3.31 30.12c.11 2.2 2.69 3.88 2.69 3.88s2.41-1.91 2.3-4.12-2.69-3.88-2.69-3.88-2.41 1.91-2.3 4.12z"/><path d="m4.19 45.12c2 1 4.68-.54 4.68-.54s-.55-3-2.54-4-4.69.54-4.69.54.55 3.06 2.55 4z"/><path d="m12.84 42c-.94 2-4 2.55-4 2.55s-1.49-2.69-.55-4.69 4-2.54 4-2.54 1.5 2.68.55 4.68z"/><path d="m16 57.34c2.2-.2 3.76-2.85 3.76-2.85s-2-2.33-4.21-2.13-3.76 2.85-3.76 2.85 2.03 2.33 4.21 2.13z"/><path d="m21.91 50.28c.2 2.2-2.13 4.21-2.13 4.21s-2.65-1.56-2.85-3.76 2.13-4.21 2.13-4.21 2.65 1.56 2.85 3.76z"/></g></svg>