<svg xmlns="http://www.w3.org/2000/svg" version="1.1" xmlns:xlink="http://www.w3.org/1999/xlink" width="512" height="512" x="0" y="0" viewBox="0 0 512 512" style="enable-background:new 0 0 512 512" xml:space="preserve" class=""><g><path fill-rule="evenodd" d="M186.51 194.54c46.11 0 83.63-37.51 83.63-83.63 0-46.11-37.52-83.62-83.63-83.62s-83.63 37.51-83.63 83.62c0 46.12 37.52 83.63 83.63 83.63zm134.65 267.28c-13.46-11.56-24.99-24.13-34.56-37.69v37.69zm-21.64-55.09c-18.83-29.13-28.1-63.61-27.54-102.46a5.99 5.99 0 0 1 2.99-5.1l97.52-56.5a5.98 5.98 0 0 1 6.01 0l97.5 56.5a6.01 6.01 0 0 1 3.02 5.1c.53 38.86-8.74 73.33-27.57 102.46-16.58 25.67-41.15 47.94-72.98 66.19-.93.53-1.96.79-2.99.79s-2.06-.26-2.98-.79c-31.83-18.27-56.38-40.52-72.98-66.19zm-35.99-102.59.12-8.2 111.84-64.79 111.86 64.79.12 8.2c1.1 76.36-34.18 135.62-104.8 176.11l-7.19 4.12-7.19-4.12c-70.61-40.49-105.87-99.75-104.76-176.11zm86.2 79.07v-41.88h-15.75v41.88zm12-38.08v31.6c1.02.41 2.01.92 2.99 1.55 1.03.67 2.23 1.02 3.46 1.02h27.36c9.9 0 18.02-7.13 19.31-16.95l2.16-16.46v-1.67c0-3.25-2.65-5.89-5.89-5.89h-16.08c-1.98 0-3.84-.98-4.95-2.61a6.005 6.005 0 0 1-.64-5.57c1.26-3.23 1.95-7.88 1.92-13.1-.02-3.56-.6-6.48-1.94-9.78a26 26 0 0 0-1.39-2.9c-.68-1.24-1.75-1.87-3.17-1.87h-.74v6.53c0 6.23-2.02 11.81-6.03 16.58zm-77.77-37.31 91.53-53.03 91.53 53.03c-.04 66.57-30.02 116.66-91.53 152.95-61.52-36.3-91.49-86.38-91.53-152.95zm84.95 10.06-11.36 13.55a10.32 10.32 0 0 0-6.23-2.1h-18.93c-5.74 0-10.41 4.67-10.41 10.41v45.06c0 5.74 4.67 10.41 10.41 10.41h18.93c4 0 7.47-2.27 9.21-5.58 2.39 1.09 5 1.67 7.65 1.67h27.36c16 0 29.13-11.52 31.21-27.39l2.21-16.85c.03-.26.05-.52.05-.78v-2.07c0-9.87-8.03-17.89-17.89-17.89h-8.39c.52-3.42.65-6.72.64-9.35-.03-5.11-.9-9.51-2.83-14.25-.6-1.48-1.28-2.9-2.01-4.21-2.8-5.03-7.9-8.03-13.66-8.03h-1.07c-6.43 0-11.67 5.23-11.67 11.66V309c0 3.43-1.02 6.26-3.22 8.88zm-217.26 82.77c-.08 1.67.54 3.3 1.71 4.49l28.86 29.48c1.13 1.15 2.68 1.8 4.29 1.8s3.16-.65 4.29-1.8l28.86-29.48a5.951 5.951 0 0 0 1.7-4.49L216 292.34l17.09-49.57c22.25.83 43.84 8.21 62 21.1l-40.4 23.4c-1.83 1.06-2.96 3-2.99 5.11l-.17 11.59c-.54 37.57 7.19 71.21 23.07 100.77v57.08H98.42V357.36c0-3.31-2.68-6-6-6-3.31 0-6 2.69-6 6v104.45H29.49V357.36c0-61.82 49.16-112.36 110.43-114.6l17.09 49.57zm52.59-103.18h-35.47l-5 101.15 22.74 23.22 22.74-23.22zm16.19-54.8h-67.84l14.75 42.81h38.33z" clip-rule="evenodd" fill="#a87e3f" opacity="1" data-original="#000000" class=""></path></g></svg>