<svg xmlns="http://www.w3.org/2000/svg" version="1.1" xmlns:xlink="http://www.w3.org/1999/xlink" width="512" height="512" x="0" y="0" viewBox="0 0 60 60" style="enable-background:new 0 0 512 512" xml:space="preserve"><g><path d="M9.571 17.398c.356-.649.746-1.279 1.17-1.888C8.333 11.83 6.035 7.496 3.91 2.599a.987.987 0 0 0-1.309-.513.992.992 0 0 0-.516 1.318c2.352 5.415 4.867 10.11 7.486 13.994zM45.447 40.015l1.804 6.718a1.001 1.001 0 0 1-.963 1.27h-8.29c-11.238 0-16.199-2.658-19.57-5.259-4.585-3.541-7.466-9.229-7.519-14.843-.011-1.734.246-3.47.764-5.161a17.239 17.239 0 0 1 1.937-4.297c1.283-2.069 2.975-3.838 4.895-5.115 4.932-3.275 11.431-3.638 16.173-.903 4.208 2.431 4.971 6.559 4.346 9.354-.708 3.168-2.457 5.325-5.196 6.412-3.766 1.513-9.225.686-13.274-2.018-2.016-1.345-4.011-3.171-5.943-5.44a15.165 15.165 0 0 0-.844 2.061c1.836 2.048 3.741 3.75 5.673 5.034 2.954 1.979 6.651 3.113 10.146 3.113 1.842 0 3.52-.299 4.987-.888 3.342-1.342 5.554-4.05 6.398-7.83.84-3.736-.472-8.748-5.294-11.526-5.391-3.114-12.735-2.729-18.278.957a17.982 17.982 0 0 0-4.643 4.463c-.003.004-.008.005-.011.009l.004.003a18.84 18.84 0 0 0-2.127 3.628 19.79 19.79 0 0 0-1.713 8.157c.057 6.312 3.157 12.445 8.291 16.405 3.649 2.81 8.975 5.683 20.798 5.683h8.29a1.001 1.001 0 0 1 .963 1.27l-1.87 6.68 12.596-8.913-12.529-9.023z" fill="#ffffff" opacity="1" data-original="#000000"></path></g></svg>