<?xml version="1.0" encoding="UTF-8" standalone="no"?>
<!-- Created with Inkscape (http://www.inkscape.org/) -->

<svg
   version="1.1"
   id="svg1341"
   xml:space="preserve"
   width="682.66669"
   height="682.66669"
   viewBox="0 0 682.66669 682.66669"
   xmlns="http://www.w3.org/2000/svg"
   xmlns:svg="http://www.w3.org/2000/svg"><defs
     id="defs1345"><clipPath
       clipPathUnits="userSpaceOnUse"
       id="clipPath1355"><path
         d="M 0,512 H 512 V 0 H 0 Z"
         id="path1353" /></clipPath></defs><g
     id="g1347"
     transform="matrix(1.3333333,0,0,-1.3333333,0,682.66667)"><g
       id="g1349"><g
         id="g1351"
         clip-path="url(#clipPath1355)"><g
           id="g1357"
           transform="translate(7.5,10.7568)"><path
             d="M 0,0 V 246.695 H 436.247 V 0"
             style="fill:none;stroke:#000000;stroke-width:15;stroke-linecap:round;stroke-linejoin:round;stroke-miterlimit:10;stroke-dasharray:none;stroke-opacity:1"
             id="path1359" /></g><g
           id="g1361"
           transform="translate(504.5,10.7568)"><path
             d="m 0,0 v 137.023 c 0,8.278 -6.71,14.987 -14.986,14.987 H -60.753 V 0"
             style="fill:none;stroke:#000000;stroke-width:15;stroke-linecap:round;stroke-linejoin:round;stroke-miterlimit:10;stroke-dasharray:none;stroke-opacity:1"
             id="path1363" /></g><g
           id="g1365"
           transform="translate(443.7471,119.9766)"><path
             d="m 0,0 h 60.753 v 27.804 c 0,8.277 -6.71,14.987 -14.986,14.987 H 0 Z"
             style="fill:none;stroke:#000000;stroke-width:15;stroke-linecap:round;stroke-linejoin:round;stroke-miterlimit:10;stroke-dasharray:none;stroke-opacity:1"
             id="path1367" /></g><g
           id="g1369"
           transform="translate(428.9541,323.5581)"><path
             d="M 0,0 H -421.454 V -66.106 H 14.793 v 51.314 C 14.793,-6.623 8.17,0 0,0 Z"
             style="fill:none;stroke:#000000;stroke-width:15;stroke-linecap:round;stroke-linejoin:round;stroke-miterlimit:10;stroke-dasharray:none;stroke-opacity:1"
             id="path1371" /></g><g
           id="g1373"
           transform="translate(225.623,358.584)"><path
             d="M 0,0 V 32.57 C 0,40.042 -6.057,46.1 -13.529,46.1 h -135.7 c -7.471,0 -13.529,-6.058 -13.529,-13.53 V -101.132 H 0"
             style="fill:none;stroke:#000000;stroke-width:15;stroke-linecap:round;stroke-linejoin:round;stroke-miterlimit:10;stroke-dasharray:none;stroke-opacity:1"
             id="path1375" /></g><path
           d="M 165.941,50.809 H 92.326 v 105.458 h 73.615 z"
           style="fill:none;stroke:#000000;stroke-width:15;stroke-linecap:round;stroke-linejoin:round;stroke-miterlimit:10;stroke-dasharray:none;stroke-opacity:1"
           id="path1377" /><path
           d="M 180.171,191.898 H 78.097 v -35.632 h 102.074 z"
           style="fill:none;stroke:#000000;stroke-width:15;stroke-linecap:round;stroke-linejoin:round;stroke-miterlimit:10;stroke-dasharray:none;stroke-opacity:1"
           id="path1379" /><g
           id="g1381"
           transform="translate(92.3262,93.5298)"><path
             d="M 0,0 H 73.615"
             style="fill:none;stroke:#000000;stroke-width:15;stroke-linecap:round;stroke-linejoin:round;stroke-miterlimit:10;stroke-dasharray:none;stroke-opacity:1"
             id="path1383" /></g><g
           id="g1385"
           transform="translate(285.4687,156.2661)"><path
             d="M 0,0 H 73.616 V -105.458 H 0 v 70.384"
             style="fill:none;stroke:#000000;stroke-width:15;stroke-linecap:round;stroke-linejoin:round;stroke-miterlimit:10;stroke-dasharray:none;stroke-opacity:1"
             id="path1387" /></g><path
           d="M 373.313,191.898 H 271.24 v -35.632 h 102.073 z"
           style="fill:none;stroke:#000000;stroke-width:15;stroke-linecap:round;stroke-linejoin:round;stroke-miterlimit:10;stroke-dasharray:none;stroke-opacity:1"
           id="path1389" /><g
           id="g1391"
           transform="translate(285.4687,93.5298)"><path
             d="M 0,0 H 73.616"
             style="fill:none;stroke:#000000;stroke-width:15;stroke-linecap:round;stroke-linejoin:round;stroke-miterlimit:10;stroke-dasharray:none;stroke-opacity:1"
             id="path1393" /></g><g
           id="g1395"
           transform="translate(388.2529,257.4512)"><path
             d="M 0,0 V 66.107"
             style="fill:none;stroke:#000000;stroke-width:15;stroke-linecap:round;stroke-linejoin:round;stroke-miterlimit:10;stroke-dasharray:none;stroke-opacity:1"
             id="path1397" /></g><g
           id="g1399"
           transform="translate(334.0244,257.4512)"><path
             d="M 0,0 V 99.259"
             style="fill:none;stroke:#000000;stroke-width:15;stroke-linecap:round;stroke-linejoin:round;stroke-miterlimit:10;stroke-dasharray:none;stroke-opacity:1"
             id="path1401" /></g><g
           id="g1403"
           transform="translate(279.7969,257.4512)"><path
             d="M 0,0 V 66.107"
             style="fill:none;stroke:#000000;stroke-width:15;stroke-linecap:round;stroke-linejoin:round;stroke-miterlimit:10;stroke-dasharray:none;stroke-opacity:1"
             id="path1405" /></g><g
           id="g1407"
           transform="translate(225.5596,257.4512)"><path
             d="M 0,0 V 66.107"
             style="fill:none;stroke:#000000;stroke-width:15;stroke-linecap:round;stroke-linejoin:round;stroke-miterlimit:10;stroke-dasharray:none;stroke-opacity:1"
             id="path1409" /></g><g
           id="g1411"
           transform="translate(171.3311,257.4512)"><path
             d="M 0,0 V 66.107"
             style="fill:none;stroke:#000000;stroke-width:15;stroke-linecap:round;stroke-linejoin:round;stroke-miterlimit:10;stroke-dasharray:none;stroke-opacity:1"
             id="path1413" /></g><g
           id="g1415"
           transform="translate(117.0938,257.4512)"><path
             d="M 0,0 V 66.107"
             style="fill:none;stroke:#000000;stroke-width:15;stroke-linecap:round;stroke-linejoin:round;stroke-miterlimit:10;stroke-dasharray:none;stroke-opacity:1"
             id="path1417" /></g><g
           id="g1419"
           transform="translate(62.8652,257.4512)"><path
             d="M 0,0 V 66.107"
             style="fill:none;stroke:#000000;stroke-width:15;stroke-linecap:round;stroke-linejoin:round;stroke-miterlimit:10;stroke-dasharray:none;stroke-opacity:1"
             id="path1421" /></g><g
           id="g1423"
           transform="translate(283.541,356.7104)"><path
             d="m 0,0 h 100.968 c 4.84,0 7.135,5.966 3.541,9.209 L 54.025,54.776 c -2.011,1.816 -5.071,1.816 -7.083,0 L -3.541,9.209 C -7.135,5.966 -4.84,0 0,0 Z"
             style="fill:none;stroke:#000000;stroke-width:15;stroke-linecap:round;stroke-linejoin:round;stroke-miterlimit:10;stroke-dasharray:none;stroke-opacity:1"
             id="path1425" /></g><g
           id="g1427"
           transform="translate(94.3975,370.6494)"><path
             d="M 0,0 H 39.813"
             style="fill:none;stroke:#000000;stroke-width:15;stroke-linecap:round;stroke-linejoin:round;stroke-miterlimit:10;stroke-dasharray:none;stroke-opacity:1"
             id="path1429" /></g><g
           id="g1431"
           transform="translate(402.333,480.0127)"><path
             d="m 0,0 c 6.142,12.571 19.053,21.23 33.986,21.23 20.879,0 37.804,-16.925 37.804,-37.803 0,-20.879 -16.925,-37.804 -37.804,-37.804 -14.708,0 -27.454,8.399 -33.703,20.662"
             style="fill:none;stroke:#000000;stroke-width:15;stroke-linecap:round;stroke-linejoin:round;stroke-miterlimit:10;stroke-dasharray:none;stroke-opacity:1"
             id="path1433" /></g></g></g></g></svg>
