<svg xmlns="http://www.w3.org/2000/svg" version="1.1" xmlns:xlink="http://www.w3.org/1999/xlink" width="512" height="512" x="0" y="0" viewBox="0 0 512 512" style="enable-background:new 0 0 512 512" xml:space="preserve" class=""><g><path d="M216 400c-30.928 0-56 25.072-56 56s25.072 56 56 56 56-25.072 56-56-25.072-56-56-56zm0 80c-13.255 0-24-10.745-24-24s10.745-24 24-24 24 10.745 24 24-10.745 24-24 24zM408 400c-30.928 0-56 25.072-56 56s25.072 56 56 56 56-25.072 56-56-25.072-56-56-56zm0 80c-13.255 0-24-10.745-24-24s10.745-24 24-24 24 10.745 24 24-10.745 24-24 24zM384 336H156.336l-80-304H0v32h51.664l80 304H384zM416 336h32v32h-32zM480 336h32v32h-32z" fill="#ffffff" opacity="1" data-original="#000000" class=""></path><path d="M480 272H205.632l-37.84-144H256V96H126.304l54.64 208H512v-64h-32z" fill="#ffffff" opacity="1" data-original="#000000" class=""></path><path d="M240 160h32v80h-32zM384 160h32v-32h32V96h-32V64h-32v32h-32v32h32z" fill="#ffffff" opacity="1" data-original="#000000" class=""></path><path d="M400 224c61.856 0 112-50.144 112-112S461.856 0 400 0 288 50.144 288 112c.071 61.827 50.173 111.929 112 112zm0-192c44.183 0 80 35.817 80 80s-35.817 80-80 80-80-35.817-80-80c.053-44.161 35.839-79.947 80-80z" fill="#ffffff" opacity="1" data-original="#000000" class=""></path></g></svg>