<svg xmlns="http://www.w3.org/2000/svg" version="1.1" xmlns:xlink="http://www.w3.org/1999/xlink" width="512" height="512" x="0" y="0" viewBox="0 0 512.003 512.003" style="enable-background:new 0 0 512 512" xml:space="preserve" class=""><g><path d="M503.405 429.543c-9.074-6.297-21.536-4.048-27.834 5.026-25.345 36.51-99.115 36.531-124.473 0a19.998 19.998 0 0 0-32.86-.001c-25.345 36.511-99.115 36.532-124.474 0a20 20 0 0 0-32.86.001c-25.345 36.512-99.114 36.531-124.473 0-6.299-9.075-18.762-11.323-27.834-5.026-9.074 6.299-11.324 18.759-5.025 27.833 36.718 52.896 125.485 58.622 173.762 17.951 42.455 35.765 115.376 35.346 157.333 0 48.264 40.661 137.076 34.897 173.761-17.951 6.299-9.074 4.049-21.534-5.023-27.833zM98.001 315.981c11.046 0 20-8.954 20-19.999v-29.998H298v29.998c0 11.045 8.954 19.999 20 19.999s20-8.954 20-19.999V77.997c0-15.438 12.56-27.998 28-27.998 15.439 0 28 12.56 28 27.998 0 11.045 8.954 19.999 20 19.999s20-8.954 20-19.999c0-37.493-30.505-67.996-67.999-67.996s-68 30.503-68 67.996v57.996h-180V77.997c0-15.438 12.56-27.998 28-27.998s28 12.56 28 27.998c0 11.045 8.954 19.999 20 19.999s20-8.954 20-19.999c-.001-37.493-30.505-67.996-68-67.996s-68 30.503-68 67.996v217.986c0 11.044 8.954 19.998 20 19.998zm20-139.991H298v49.997H118.001V175.99z" fill="#333333" opacity="1" data-original="#000000" class=""></path><path d="M177.337 385.333c20.135 16.963 48.061 26.642 78.666 26.642 30.605 0 58.53-9.679 78.666-26.642 48.264 40.661 137.076 34.897 173.761-17.951 6.299-9.074 4.049-21.535-5.025-27.833-9.074-6.297-21.536-4.048-27.834 5.026-25.345 36.51-99.115 36.531-124.473 0a19.998 19.998 0 0 0-32.86-.001c-25.345 36.511-99.115 36.532-124.474 0a20 20 0 0 0-32.86.001c-25.345 36.512-99.114 36.531-124.473 0-6.299-9.075-18.762-11.323-27.834-5.026-9.074 6.299-11.324 18.759-5.025 27.833 36.718 52.896 125.485 58.622 173.765 17.951z" fill="#333333" opacity="1" data-original="#000000" class=""></path></g></svg>