<svg xmlns="http://www.w3.org/2000/svg" version="1.1" xmlns:xlink="http://www.w3.org/1999/xlink" width="512" height="512" x="0" y="0" viewBox="0 0 24 24" style="enable-background:new 0 0 512 512" xml:space="preserve" class=""><g><g data-name="Layer 2"><path d="M18.5 22.75h-13A3.754 3.754 0 0 1 1.75 19V9A3.754 3.754 0 0 1 5.5 5.25h13A3.754 3.754 0 0 1 22.25 9v10a3.754 3.754 0 0 1-3.75 3.75zm-13-16A2.252 2.252 0 0 0 3.25 9v10a2.252 2.252 0 0 0 2.25 2.25h13A2.252 2.252 0 0 0 20.75 19V9a2.252 2.252 0 0 0-2.25-2.25z" fill="#333333" opacity="1" data-original="#000000" class=""></path><path d="M11 17.507a1.749 1.749 0 0 1-1.75-1.751v-3.513a1.75 1.75 0 0 1 2.533-1.565l3.011 1.506a1.75 1.75 0 0 1 .189 3.021l-3.012 2.007a1.749 1.749 0 0 1-.971.295zm0-5.515a.249.249 0 0 0-.131.038.244.244 0 0 0-.119.213v3.513a.241.241 0 0 0 .132.221.237.237 0 0 0 .257-.013l3.011-2.007a.251.251 0 0 0-.026-.432l-3.012-1.505a.253.253 0 0 0-.112-.028zM12 6.75a.744.744 0 0 1-.53-.22l-4-4a.75.75 0 0 1 1.06-1.06L12 4.939l3.47-3.469a.75.75 0 0 1 1.06 1.06l-4 4a.744.744 0 0 1-.53.22z" fill="#333333" opacity="1" data-original="#000000" class=""></path></g></g></svg>