<svg xmlns="http://www.w3.org/2000/svg" version="1.1" xmlns:xlink="http://www.w3.org/1999/xlink" width="512" height="512" x="0" y="0" viewBox="0 0 512.001 512.001" style="enable-background:new 0 0 512 512" xml:space="preserve" class=""><g><path d="M467 421.997h-37.932a14.983 14.983 0 0 1-13.787-9.091l-33.115-77.269a104.88 104.88 0 0 0-96.508-63.638h-15.654V152.002h15c13.666 0 20.237-16.929 10.058-26.128L160.065 3.877c-5.711-5.161-14.403-5.161-20.114 0L4.954 125.874c-10.181 9.2-3.608 26.128 10.057 26.128h15v329.992h-15c-8.284 0-15 6.716-15 15s6.716 15 15 15H45.01c8.284 0 15-6.716 15-15v-74.998h29.999v74.998c0 8.284 6.716 15 15 15s15-6.716 15-15v-15h59.999v15c0 8.284 6.716 15 15 15s15-6.716 15-15v-74.998h29.999v74.998c0 8.284 6.716 15 15 15h29.999c8.284 0 15-6.716 15-15s-6.716-15-15-15h-15V361.997h20.933c6.008 0 11.42 3.568 13.787 9.091l40.907 95.452a74.917 74.917 0 0 0 68.934 45.455h52.436c24.812 0 44.999-20.187 44.999-44.999-.003-24.871-20.13-45-45.002-44.999zm-376.992-30H60.009v-29.999h29.999v29.999zm89.998 59.999h-59.999v-29.999h59.999v29.999zm0-59.999h-59.999v-29.999h59.999v29.999zm59.999 0h-29.999v-29.999h29.999v29.999zm0-59.998H60.009V152.003h179.996v179.996zM53.979 122.003l96.028-86.78 96.028 86.78H53.979zM467 481.995h-52.436a44.949 44.949 0 0 1-41.36-27.272l-40.907-95.452a44.95 44.95 0 0 0-41.361-27.272h-20.932V302h15.654a74.914 74.914 0 0 1 68.934 45.455l33.115 77.269a44.945 44.945 0 0 0 41.361 27.272H467c8.29 0 15 6.708 15 15-.001 8.271-6.73 14.999-15 14.999z" fill="#333333" opacity="1" data-original="#000000" class=""></path><path d="M150.007 182.002c-33.083 0-59.999 26.915-59.999 59.999 0 33.083 26.915 59.999 59.999 59.999 33.083 0 59.999-26.915 59.999-59.999 0-33.083-26.916-59.999-59.999-59.999zm0 89.998c-16.542 0-29.999-13.458-29.999-29.999s13.458-29.999 29.999-29.999c16.542 0 29.999 13.458 29.999 29.999S166.549 272 150.007 272z" fill="#333333" opacity="1" data-original="#000000" class=""></path></g></svg>