<svg xmlns="http://www.w3.org/2000/svg" version="1.1" xmlns:xlink="http://www.w3.org/1999/xlink" width="512" height="512" x="0" y="0" viewBox="0 0 1024 1024" style="enable-background:new 0 0 512 512" xml:space="preserve" class=""><g><path d="m356 583.5-11.1-12.1c-2.8-3-68.1-74.6-109.9-135.4-16.3-23.7-26.6-42.2-31.6-56.7-2.9-8.3-5-16.8-6.5-25.5-1.5-9-2.3-18.1-2.3-27.3 0-8 .6-16 1.8-23.8 5.6-37.9 24.7-72.7 53.8-98C279.4 179.1 317 165 356 165c89 0 161.5 72.4 161.5 161.5 0 6.3-.4 12.7-1.1 18.9-.3 2.8-.7 5.6-1.2 8.4-1.5 8.6-3.7 17.1-6.5 25.4-5 14.5-15.4 33.1-31.7 56.8-41.8 60.9-107.2 132.4-109.9 135.4zm0-388.5c-64.7 0-120.6 48.2-130 112-.9 6.4-1.4 12.9-1.4 19.4 0 7.5.6 15 1.9 22.3 1.2 7 3 14 5.3 20.7 4.1 11.8 13.5 28.4 28 49.6 30.6 44.5 75.6 96.6 96.3 119.8 20.6-23.3 65.7-75.3 96.3-119.8 14.5-21.1 24-37.8 28-49.6 2.3-6.7 4.1-13.6 5.3-20.7.4-2.2.7-4.5 1-6.7.6-5.1.9-10.3.9-15.5C487.5 254 428.5 195 356 195z" fill="#b78d52" opacity="1" data-original="#000000"></path><path d="M622.5 793.2H354.7l-.2-14.8c-.3-27.3-22.7-49.4-50-49.4s-49.7 22.2-50 49.4l-.2 14.8H148.9c-14.5 0-29-5.6-39.7-15.5-11.4-10.5-17.7-24.4-17.7-39.3v-347c0-29.9 26.3-55.2 57.4-55.2h75.4l2.1 12.5c1.2 7 3 14 5.3 20.7 4.1 11.8 13.5 28.4 28 49.6 30.6 44.5 75.6 96.6 96.3 119.8 20.6-23.3 65.7-75.3 96.3-119.8 14.5-21.1 24-37.8 28-49.6 2.3-6.7 4.1-13.6 5.3-20.7l2.1-12.5h80.4c30.5 0 54.4 24.3 54.4 55.2zm-239.5-30h209.5V391.5c0-14.2-10.7-25.2-24.4-25.2h-55.6c-1.1 4.4-2.4 8.7-3.9 12.9-5 14.5-15.4 33.1-31.7 56.8-41.8 60.9-107.2 132.4-109.9 135.4l-11 12.1-11.1-12.1c-2.8-3-68.1-74.6-109.9-135.4-16.3-23.7-26.6-42.2-31.6-56.7-1.5-4.3-2.8-8.6-3.9-13h-50.6c-14.6 0-27.4 11.8-27.4 25.2v347c0 13.2 12.8 24.8 27.4 24.8h77.2c3.1-15.5 10.7-29.8 22.2-41.1 15.1-14.9 35.1-23.1 56.3-23.1s41.2 8.2 56.3 23.1c11.4 11.3 19 25.5 22.1 41zM738.4 859c-44.1 0-80-35.9-80-80v-1.1c.3-21.1 8.7-40.9 23.7-55.8 15.1-14.9 35.1-23.1 56.3-23.1s41.2 8.2 56.3 23.1c15 14.9 23.4 34.7 23.7 55.8v1.1c0 44.1-35.9 80-80 80zm0-130c-27.3 0-49.7 22.2-50 49.4V779c0 27.6 22.4 50 50 50s50-22.4 50-50v-.6c-.3-27.2-22.7-49.4-50-49.4z" fill="#b78d52" opacity="1" data-original="#000000"></path><path d="M932.5 793.2H788.6l-.2-14.8c-.3-27.3-22.7-49.4-50-49.4s-49.7 22.2-50 49.4l-.2 14.8h-95.8v-383h208.1l131.9 165.1v217.9zm-115.6-30h85.6V585.8L786.2 440.2H622.5v323H660c3.1-15.5 10.7-29.8 22.2-41.1 15.1-14.9 35.1-23.1 56.3-23.1s41.2 8.2 56.3 23.1c11.4 11.4 19 25.6 22.1 41.1zM304.6 859c-44.1 0-80-35.9-80-80v-1.1c.3-21.1 8.7-40.9 23.7-55.8 15.1-14.9 35.1-23.1 56.3-23.1s41.2 8.2 56.3 23.1c15 14.9 23.4 34.7 23.7 55.8v1.1c0 44.1-35.9 80-80 80zm0-130c-27.3 0-49.7 22.2-50 49.4v.6c0 27.6 22.4 50 50 50s50-22.4 50-50v-.6c-.3-27.2-22.8-49.4-50-49.4z" fill="#b78d52" opacity="1" data-original="#000000"></path><path d="M695 566h222v30H695zM356 377.8c-28.3 0-51.4-23-51.4-51.4 0-28.3 23-51.4 51.4-51.4 28.3 0 51.4 23 51.4 51.4s-23.1 51.4-51.4 51.4zm0-72.7c-11.8 0-21.4 9.6-21.4 21.4s9.6 21.4 21.4 21.4 21.4-9.6 21.4-21.4-9.6-21.4-21.4-21.4z" fill="#b78d52" opacity="1" data-original="#000000"></path></g></svg>