<svg id="Layer_1" enable-background="new 0 0 48 48" viewBox="0 0 48 48" xmlns="http://www.w3.org/2000/svg"><g><g><path d="m30.5 11.8v-4.1h-30v26.3h4.6s0 0 0-.1.1-.2.2-.3c.1-.2.2-.3.3-.5.1-.1.1-.2.2-.3s.2-.3.3-.4l.3-.3c.1-.1.3-.2.4-.3s.2-.2.3-.2c.1-.1.3-.2.4-.3s.2-.1.3-.2c.3-.1.4-.1.6-.2.1 0 .2-.1.3-.1.2-.1.4-.1.6-.1.1 0 .2 0 .3-.1.3 0 .6-.1.9-.1s.6 0 .9.1c.1 0 .2 0 .3.1.2 0 .4.1.6.1.1 0 .2.1.3.1.2.1.3.1.5.2.1.1.2.1.3.2.2.1.3.2.4.3s.2.1.3.2.3.2.4.3.2.2.3.3.2.3.3.4.2.2.2.3c.1.2.2.3.3.5.1.1.1.2.2.3v.1h14.4v-22.2zm-9.1 11.7c-2.4 2.5-5.2 4.4-5.3 4.5l-.6.4-.6-.4c-.1-.1-2.9-2-5.3-4.5-2.5-2.6-3.7-4.9-3.7-6.9 0-2.1 1.1-4 2.9-5.1.6-.3 1.2-.6 1.8-.7.7-.1 1.2-.2 1.8-.1 1.2.1 2.3.6 3.2 1.3.9-.8 2-1.2 3.2-1.4.5-.1 1.1 0 1.7.1s1.2.4 1.8.7c1.8 1.1 2.9 3 2.9 5.1s-1.3 4.4-3.8 7z" fill="#90e085"/></g><g><path d="m21.1 13.4c-.3-.2-.7-.3-1.1-.4s-.7-.1-1.1-.1c-1 .1-2 .6-2.6 1.4l-.9 1.2-.9-1.2c-.5-.7-1.5-1.2-2.5-1.3-.1 0-.2 0-.4 0s-.5 0-.8.1c-.4.1-.7.2-1.1.4-1 .6-1.7 1.8-1.7 3.1 0 1.4 1.1 3.3 3.1 5.4 1.6 1.7 3.4 3 4.3 3.7.9-.7 2.7-2.1 4.3-3.7 2-2.1 3.1-4 3.1-5.4.1-1.3-.6-2.5-1.7-3.2z" fill="#f283a0"/></g><g><path d="m10.6 40.3c2.1 0 3.8-1.7 3.8-3.8 0-.4-.1-.8-.2-1.1-.4-1.4-1.6-2.4-3-2.6-.2 0-.4-.1-.6-.1-1.7 0-3.2 1.1-3.6 2.7-.1.4-.2.7-.2 1.1-.1 2.1 1.7 3.8 3.8 3.8z" fill="#929fc5"/></g><g><path d="m34.7 33.9c.1-.1.1-.2.2-.3.1-.2.2-.3.3-.4l.3-.3c.1-.1.2-.3.3-.4s.2-.2.3-.3.2-.2.4-.3c.1-.1.2-.2.3-.2.1-.1.3-.2.4-.3s.2-.1.3-.2c.2-.1.3-.1.5-.2.1 0 .2-.1.3-.1.2-.1.4-.1.6-.1.1 0 .2 0 .3-.1.3 0 .6-.1.9-.1s.6 0 .9.1c.1 0 .2 0 .3.1.2 0 .4.1.6.1.1 0 .2.1.3.1.2.1.3.1.5.2.1.1.2.1.3.2.2.1.3.2.4.3s.2.1.3.2.3.2.4.3l.3.3c.1.1.2.3.3.4s.2.2.2.3c.1.2.2.3.3.5.1.1.1.2.2.3v.1h1.9v-7.4h-10c-1.4 0-2.5-1.1-2.5-2.5v-5.6c0-1.4 1.1-2.5 2.5-2.5h6.3l-.5-2.1h-10.4v19.9h2c-.1 0 0 0 0 0z" fill="#c49994"/></g><g><path d="m40.1 40.3c2.1 0 3.8-1.7 3.8-3.8 0-.4-.1-.8-.2-1.1-.4-1.4-1.6-2.4-3-2.6-.2 0-.4-.1-.6-.1-1.7 0-3.1 1.1-3.6 2.7-.1.4-.2.7-.2 1.1 0 2.1 1.7 3.8 3.8 3.8z" fill="#929fc5"/></g><g><path d="m37.2 18.4v5.6c0 .2.1.3.3.3h9.5l-2.3-6.2h-7.1c-.2 0-.4.1-.4.3z" fill="#68b7ea"/></g></g></svg>