<svg xmlns="http://www.w3.org/2000/svg" version="1.1" xmlns:xlink="http://www.w3.org/1999/xlink" width="512" height="512" x="0" y="0" viewBox="0 0 384 384" style="enable-background:new 0 0 512 512" xml:space="preserve" class=""><g><path d="M320 96c-11.664 0-22.574 3.184-32 8.656V96c0-52.938-43.063-96-96-96S96 43.063 96 96v8.656C86.574 99.184 75.664 96 64 96c-35.29 0-64 28.71-64 64v96c0 29.754 20.441 54.762 48 61.895V352H0v32h384v-32h-48v-34.105c27.559-7.133 48-32.133 48-61.895v-96c0-35.29-28.71-64-64-64zm-192 0c0-35.29 28.71-64 64-64s64 28.71 64 64v128c0 35.29-28.71 64-64 64s-64-28.71-64-64zM32 256v-96c0-17.648 14.352-32 32-32s32 14.352 32 32v96c0 17.648-14.352 32-32 32s-32-14.352-32-32zm48 96v-34.105c17.09-4.422 31.434-15.696 39.863-30.75 14.266 16.27 33.899 27.664 56.137 31.414V352zm128 0v-33.45c22.238-3.75 41.871-15.144 56.137-31.413 8.43 15.062 22.773 26.336 39.863 30.75V352zm144-96c0 17.648-14.352 32-32 32s-32-14.352-32-32v-96c0-17.648 14.352-32 32-32s32 14.352 32 32zm0 0" fill="#333333" opacity="1" data-original="#000000"></path><path d="M238.633 104 216 81.375l-32 32-16-16L145.367 120 184 158.625zM238.633 216 216 193.375l-16 16-32-32L145.367 200 200 254.625zm0 0" fill="#333333" opacity="1" data-original="#000000"></path></g></svg>