<svg xmlns="http://www.w3.org/2000/svg" version="1.1" xmlns:xlink="http://www.w3.org/1999/xlink" width="512" height="512" x="0" y="0" viewBox="0 0 512 512.001" style="enable-background:new 0 0 512 512" xml:space="preserve" class=""><g><path d="M174.234 318.445h-30.023c-9.352 0-16.961-7.605-16.961-16.96V284.75c0-.988-.7-1.844-1.734-2.129a127.119 127.119 0 0 1-29.836-12.394c-.852-.489-1.856-.391-2.493.246l-11.953 11.953a16.844 16.844 0 0 1-11.992 4.965c-4.527 0-8.789-1.762-11.992-4.965l-21.23-21.23a16.855 16.855 0 0 1-4.97-11.993c0-4.531 1.766-8.793 4.97-11.992l11.949-11.953c.64-.637.738-1.64.246-2.492a127.272 127.272 0 0 1-12.39-29.836c-.286-1.035-1.141-1.735-2.13-1.735H16.961c-9.352 0-16.961-7.61-16.961-16.96V144.21c0-9.352 7.61-16.961 16.96-16.961h16.735c.989 0 1.844-.695 2.13-1.734A127.256 127.256 0 0 1 48.218 95.68c.488-.852.39-1.856-.246-2.492L36.02 81.234a16.841 16.841 0 0 1-4.97-11.992c0-4.527 1.766-8.789 4.97-11.992l21.23-21.23c3.203-3.204 7.46-4.965 11.992-4.965s8.793 1.761 11.996 4.968l11.95 11.95c.636.636 1.636.734 2.492.246a127.256 127.256 0 0 1 29.832-12.395c1.043-.285 1.738-1.14 1.738-2.129V16.961C127.25 7.609 134.86 0 144.21 0h30.024c9.352 0 16.961 7.61 16.961 16.96v16.735c0 .989.696 1.844 1.735 2.125a127.337 127.337 0 0 1 29.832 12.399c.855.488 1.855.39 2.496-.246l11.949-11.953c6.629-6.625 17.36-6.63 23.988.003l2.246 2.247c7.012 7.007-3.586 17.625-10.605 10.605-1.383-1.195-3.156-4.113-5.02-2.246l-11.953 11.95c-5.406 5.405-13.863 6.495-20.566 2.648a112.404 112.404 0 0 0-26.313-10.934c-7.53-2.05-12.793-8.879-12.793-16.602v-16.73c0-1.082-.878-1.961-1.96-1.961h-30.024a1.961 1.961 0 0 0-1.957 1.96v16.735c0 7.723-5.262 14.547-12.793 16.602a112.351 112.351 0 0 0-26.316 10.93c-6.7 3.847-15.157 2.757-20.563-2.649l-11.95-11.95a1.919 1.919 0 0 0-1.386-.573c-.37 0-.91.097-1.383.574l-21.234 21.23a1.927 1.927 0 0 0-.574 1.383c0 .371.101.914.574 1.387l11.953 11.953c5.406 5.406 6.496 13.86 2.649 20.563a112.432 112.432 0 0 0-10.934 26.316c-2.05 7.531-8.879 12.789-16.598 12.789H16.961c-1.082 0-1.961.883-1.961 1.96v30.024c0 1.082.879 1.961 1.96 1.961h16.735c7.72 0 14.547 5.258 16.602 12.79 2.5 9.183 6.18 18.035 10.93 26.316 3.847 6.703 2.757 15.156-2.649 20.562l-11.95 11.953a1.913 1.913 0 0 0-.573 1.387c0 .367.101.91.574 1.387l21.23 21.226c.766.766 2.008.77 2.774 0l11.949-11.949c5.406-5.406 13.863-6.496 20.566-2.648a112.335 112.335 0 0 0 26.313 10.933c7.531 2.051 12.793 8.88 12.793 16.602v16.73c0 1.082.879 1.961 1.957 1.961h30.023c1.082 0 1.961-.879 1.961-1.96v-16.731c0-7.723 5.262-14.55 12.793-16.602 9.582-2.609 13.512 11.864 3.946 14.47-1.04.284-1.739 1.14-1.739 2.132v16.73c0 9.352-7.61 16.961-16.96 16.961zm0 0" fill="#a87e3f" opacity="1" data-original="#000000"></path><path d="M88.535 159.223c0-49.594 49.867-83.59 95.82-66.082 9.262 3.535 3.938 17.554-5.343 14.02-36.266-13.825-75.48 13.097-75.48 52.062 0 31.695 26.695 57.484 59.015 55.59 9.883-.598 10.808 14.39.883 14.976-40.754 2.399-74.895-30.101-74.895-70.566zm0 0" fill="#a87e3f" opacity="1" data-original="#000000"></path><path d="m415.04 333.05-75.993-14.777v-18.777c21.34-14.559 32.894-35.176 35.41-58.332 11.078-.879 19.82-10.172 19.82-21.469v-15.414c18.059-7.851 15.621-34.207-3.484-38.652v-5.95c0-53.488-43.363-96.85-96.848-96.85h-8.12c-53.49 0-96.848 43.362-96.848 96.847v5.953c-19.098 4.441-21.551 30.8-3.485 38.652v15.414c0 11.297 8.742 20.59 19.82 21.47 2.196 20.202 11.665 38.694 26.602 51.554a98.582 98.582 0 0 0 8.809 6.777v18.777l-75.993 14.778c-40.093 7.797-71.343 30.398-71.343 72.101v76.286c0 16.878 13.683 30.562 30.562 30.562H455.82c16.88 0 30.563-13.684 30.563-30.563v-76.285c0-41.566-31.059-64.27-71.344-72.101zm-62.427 3.141a19554.07 19554.07 0 0 1-22.761 33.02c-3.664 5.309-10.239 5.984-12.809 4.445l-11.848-7.105c11.555-6.824 27.543-18.543 32.395-33.281zm-62.73 21.614c-11.39-5.735-34.098-19.903-34.16-33.293v-16.735a86.127 86.127 0 0 0 68.324 0v16.676c0 13.414-22.762 27.613-34.164 33.352zm-85.906-198.13c0-30.765 17.062-57.62 42.222-71.597v9.402c0 9.915 15 9.93 15 0V81.613a81.32 81.32 0 0 1 21.184-3.71v37.085c0 9.914 15 9.93 15 0V77.902a81.35 81.35 0 0 1 21.187 3.711V97.48c0 9.915 15 9.93 15 0v-9.402c25.16 13.977 42.223 40.832 42.223 71.598v5.422H203.977zm-10.368 20.423H386.16c7.188 0 7.18 10.863 0 10.863H193.61c-7.192 0-7.184-10.863 0-10.863zm26.227 53.472a7.5 7.5 0 0 0-7.5-7.34c-1.25-.308-11.848 1.95-11.848-6.535v-13.73h178.79v13.73c0 8.47-10.88 6.297-11.848 6.535a7.505 7.505 0 0 0-7.5 7.34c-.403 18.75-8.371 36.164-21.86 47.782-28.644 24.664-67.726 24.668-96.37 0-13.493-11.618-21.462-29.032-21.864-47.782zm22.34 99.7c4.855 14.738 20.84 26.457 32.398 33.28-11.875 6.36-11.035 8.263-16.43 7.626-3.355-.403-6.367-2.27-8.289-5.051a25354.928 25354.928 0 0 1-22.703-32.934zM155.64 497h-31.696c-8.593 0-15.562-6.969-15.562-15.563v-76.285c0-22.476 10.21-38.015 32.61-48.75.905 3.993 14.648 41.293 14.648 93.414zm126.742 0H170.64v-47.184c0-56.472-14.258-92.836-15.66-98.992 8.757-2.91 2.253-.668 56.117-11.511 15.48 22.496 44.37 64.468 61.402 88.675 6.469 9.192 9.883 19.989 9.883 31.227zm7.5-69.152a70.604 70.604 0 0 0-5.113-8.489c-5.758-8.18-13.23-18.914-21.028-30.168a22.48 22.48 0 0 0 6.7-2.671l19.44-11.66 19.446 11.66a22.44 22.44 0 0 0 6.7 2.671c-7.798 11.247-15.27 21.98-21.028 30.168a70.13 70.13 0 0 0-5.117 8.489zm181.5 53.59c0 8.593-6.965 15.562-15.563 15.562h-31.695v-28.297c0-9.914-15-9.93-15 0V497H297.383v-37.785c0-11.238 3.418-22.035 9.883-31.223 9.687-13.77 49.574-71.328 61.406-88.68 53.836 10.84 47.344 8.598 56.113 11.512-1.09 4.613-13.71 38.914-15.453 87.57-.36 9.938 14.633 10.426 14.988.54 1.688-47.086 13.239-77.383 14.453-82.532 22.399 10.735 32.61 26.274 32.61 48.746zm0 0" fill="#a87e3f" opacity="1" data-original="#000000"></path></g></svg>